<svg xmlns="http://www.w3.org/2000/svg" viewBox="0 0 220 180" fill="none">
  <g stroke="rgba(87, 52, 28, 0.58)" stroke-width="2" stroke-linecap="round" stroke-linejoin="round" fill="rgba(123, 77, 42, 0.07)">
    <path d="M34 143C59 122 83 99 105 73c17-20 32-34 57-45"/>
    <path d="M51 129c-10-22-5-42 14-55 15 18 12 39-14 55Z"/>
    <path d="M73 109c-4-25 8-43 31-51 9 22 0 40-31 51Z"/>
    <path d="M101 77c-6-25 5-45 28-55 10 22 1 42-28 55Z"/>
    <path d="M119 62c21-15 44-15 62-1-14 19-37 22-62 1Z"/>
    <path d="M86 93c22-11 43-8 59 9-17 16-39 15-59-9Z"/>
    <path d="M56 123c22-9 42-5 57 12-18 15-38 12-57-12Z"/>
    <path d="M60 126c13-10 25-20 38-31"/>
    <path d="M77 105c13-10 26-21 39-33"/>
    <path d="M104 76c9-13 18-26 28-39"/>
    <path d="M126 60c17-2 31-2 47 0"/>
    <path d="M93 94c15 3 28 6 43 8"/>
    <path d="M62 123c15 4 28 8 42 11"/>
    <circle cx="147" cy="36" r="6"/>
    <circle cx="158" cy="32" r="5"/>
    <circle cx="151" cy="47" r="5"/>
    <circle cx="137" cy="47" r="4.5"/>
    <path d="M145 31c2 5 3 9 2 14"/>
    <path d="M157 28c0 4-1 8-3 12"/>
    <path d="M137 44c3 2 6 3 9 3"/>
  </g>
</svg>
